<svg width="24" height="24" viewBox="0 0 24 24" fill="none" xmlns="http://www.w3.org/2000/svg">
<path d="M12.0029 23.2738C11.9199 23.2738 11.8359 23.2598 11.7549 23.2318C11.4549 23.1268 11.2529 22.8418 11.2529 22.5238V18.3838C9.17292 18.2118 7.23992 17.3178 5.74692 15.8238C2.29692 12.3738 2.29692 6.7618 5.74692 3.3138C9.19692 -0.134199 14.8089 -0.136199 18.2589 3.3138C21.3549 6.4108 21.7089 11.3838 19.0789 14.8788L12.5889 22.9908C12.4429 23.1728 12.2259 23.2728 12.0019 23.2728L12.0029 23.2738ZM12.0029 2.2238C10.1209 2.2238 8.23992 2.9408 6.80792 4.3738C3.94392 7.2368 3.94392 11.8978 6.80792 14.7638C8.19592 16.1508 10.0409 16.9138 12.0029 16.9138C12.4169 16.9138 12.7529 17.2508 12.7529 17.6638V20.3838L17.8949 13.9588C20.0649 11.0738 19.7709 6.9448 17.1989 4.3718C15.7649 2.9418 13.8829 2.2238 12.0019 2.2238H12.0029Z" fill="black"/>
<path d="M15.55 8.69971H8.44995C8.03695 8.69971 7.69995 8.36271 7.69995 7.94971C7.69995 7.53671 8.03695 7.19971 8.44995 7.19971H15.55C15.963 7.19971 16.3 7.53471 16.3 7.94971C16.3 8.36471 15.963 8.69971 15.55 8.69971ZM12.5 11.9377H8.44995C8.03695 11.9377 7.69995 11.6017 7.69995 11.1877C7.69995 10.7737 8.03695 10.4377 8.44995 10.4377H12.5C12.914 10.4377 13.25 10.7737 13.25 11.1877C13.25 11.6017 12.914 11.9377 12.5 11.9377Z" fill="black"/>
</svg>
