<svg width="24" height="24" viewBox="0 0 24 24" fill="none" xmlns="http://www.w3.org/2000/svg">
<path d="M18.265 3.31406C14.815 -0.135937 9.19497 -0.135937 5.74497 3.31406C2.29497 6.75406 2.29497 12.3741 5.74497 15.8241C7.24497 17.3141 9.17497 18.2041 11.255 18.3841V22.5241C11.255 22.8341 11.455 23.1241 11.755 23.2241C11.835 23.2541 11.925 23.2741 12.005 23.2741C12.225 23.2741 12.445 23.1741 12.595 22.9841L19.085 14.8741C21.715 11.3841 21.355 6.40406 18.265 3.31406ZM7.70497 11.1841C7.70497 10.7741 8.03497 10.4341 8.45497 10.4341H12.505C12.915 10.4341 13.255 10.7741 13.255 11.1841C13.255 11.5941 12.915 11.9341 12.505 11.9341H8.45497C8.03497 11.9341 7.70497 11.5941 7.70497 11.1841ZM16.305 7.94406C16.305 8.36406 15.965 8.69406 15.555 8.69406H8.45497C8.03497 8.69406 7.70497 8.36406 7.70497 7.94406C7.70497 7.53406 8.03497 7.19406 8.45497 7.19406H15.555C15.965 7.19406 16.305 7.53406 16.305 7.94406Z" fill="black"/>
</svg>
