<svg width="24" height="24" viewBox="0 0 24 24" fill="none" xmlns="http://www.w3.org/2000/svg">
<path fill-rule="evenodd" clip-rule="evenodd" d="M12.36 22.375H11.638C10.455 22.375 9.48405 21.487 9.37605 20.311L9.36205 20.164C9.33705 19.877 9.15505 19.631 8.89005 19.52C8.60405 19.4 8.30805 19.455 8.09205 19.635L7.97605 19.732C7.10805 20.457 5.72305 20.395 4.91605 19.592L4.40605 19.082C3.57005 18.242 3.51005 16.928 4.26605 16.022L4.36405 15.904C4.55005 15.682 4.59405 15.381 4.48605 15.117C4.37605 14.845 4.12805 14.663 3.84005 14.637L3.69005 14.623C2.51005 14.516 1.62305 13.543 1.62305 12.361V11.639C1.62305 10.456 2.51105 9.485 3.68705 9.377L3.84305 9.363C4.12805 9.338 4.37305 9.156 4.48505 8.89C4.59505 8.62 4.55005 8.317 4.36505 8.095L4.27105 7.979C3.51405 7.071 3.57305 5.756 4.40805 4.919L4.92005 4.407C5.72405 3.603 7.10805 3.542 7.98005 4.267L8.09605 4.365C8.31405 4.549 8.62405 4.595 8.88605 4.487C9.15605 4.375 9.33805 4.129 9.36305 3.844L9.37705 3.691C9.48405 2.511 10.457 1.625 11.639 1.625H12.361C13.544 1.625 14.515 2.513 14.623 3.689L14.637 3.845C14.662 4.13 14.843 4.375 15.109 4.485C15.386 4.602 15.689 4.547 15.903 4.368L16.023 4.266C16.89 3.543 18.277 3.604 19.083 4.406L19.593 4.918C20.429 5.756 20.489 7.071 19.733 7.978L19.633 8.096C19.445 8.316 19.399 8.618 19.51 8.884C19.622 9.154 19.87 9.334 20.156 9.362L20.308 9.376C21.488 9.483 22.375 10.456 22.375 11.638V12.361C22.375 13.544 21.487 14.515 20.311 14.623L20.156 14.637C19.872 14.661 19.626 14.842 19.516 15.107C19.403 15.379 19.449 15.681 19.633 15.902L19.733 16.022C20.489 16.927 20.429 18.242 19.593 19.082L19.083 19.592C18.276 20.396 16.893 20.456 16.023 19.732L15.908 19.636C15.691 19.453 15.378 19.406 15.118 19.514C14.845 19.628 14.663 19.874 14.638 20.16L14.624 20.31C14.517 21.483 13.544 22.37 12.362 22.37L12.36 22.375ZM8.20996 12C8.20996 9.90996 9.90996 8.20996 12 8.20996C14.09 8.20996 15.79 9.90996 15.79 12C15.79 14.09 14.09 15.79 12 15.79C9.90996 15.79 8.20996 14.09 8.20996 12ZM9.70996 12C9.70996 13.264 10.738 14.29 12 14.29C13.262 14.29 14.29 13.264 14.29 12C14.29 10.736 13.26 9.70996 12 9.70996C10.74 9.70996 9.70996 10.736 9.70996 12Z" fill="#171725"/>
</svg>
