<svg width="24" height="24" viewBox="0 0 24 24" fill="none" xmlns="http://www.w3.org/2000/svg">
<g clip-path="url(#clip0_34221_1987)">
<path fill-rule="evenodd" clip-rule="evenodd" d="M18.8513 6.45104C18.9368 6.36563 19.0047 6.26421 19.051 6.15258C19.0973 6.04094 19.1212 5.92127 19.1213 5.80041C19.1213 5.67954 19.0976 5.55985 19.0514 5.44815C19.0052 5.33646 18.9375 5.23496 18.8521 5.14944C18.7667 5.06393 18.6653 4.99607 18.5536 4.94975C18.442 4.90343 18.3223 4.87955 18.2015 4.87947C18.0806 4.8794 17.9609 4.90313 17.8492 4.94931C17.7375 4.9955 17.636 5.06323 17.5505 5.14864L12.0001 10.699L6.45129 5.14864C6.27858 4.97593 6.04433 4.87891 5.80009 4.87891C5.55584 4.87891 5.3216 4.97593 5.14889 5.14864C4.97618 5.32135 4.87915 5.55559 4.87915 5.79984C4.87915 6.04409 4.97618 6.27833 5.14889 6.45104L10.6993 11.9998L5.14889 17.5486C5.06337 17.6342 4.99553 17.7357 4.94925 17.8474C4.90297 17.9591 4.87915 18.0789 4.87915 18.1998C4.87915 18.3208 4.90297 18.4405 4.94925 18.5523C4.99553 18.664 5.06337 18.7655 5.14889 18.851C5.3216 19.0237 5.55584 19.1208 5.80009 19.1208C5.92103 19.1208 6.04078 19.097 6.15251 19.0507C6.26425 19.0044 6.36577 18.9366 6.45129 18.851L12.0001 13.3006L17.5505 18.851C17.7232 19.0235 17.9574 19.1204 18.2015 19.1202C18.4455 19.1201 18.6796 19.0229 18.8521 18.8502C19.0246 18.6775 19.1214 18.4434 19.1213 18.1993C19.1211 17.9552 19.024 17.7211 18.8513 17.5486L13.3009 11.9998L18.8513 6.45104Z" fill="#FC5A5A"/>
</g>
<defs>
<clipPath id="clip0_34221_1987">
<rect width="24" height="24" fill="white"/>
</clipPath>
</defs>
</svg>
