<svg width="24" height="24" viewBox="0 0 24 24" fill="none" xmlns="http://www.w3.org/2000/svg">
<path d="M19.25 3.01807H4.75C3.233 3.01807 2 4.25207 2 5.77007V18.2651C2 19.7831 3.233 21.0181 4.75 21.0181H19.25C20.767 21.0181 22 19.7831 22 18.2651V5.77007C22 4.25207 20.767 3.01807 19.25 3.01807ZM4.75 4.51807H19.25C19.94 4.51807 20.5 5.07807 20.5 5.76807V6.48207L12.45 11.8491C12.177 12.0291 11.824 12.0311 11.55 11.8471L3.5 6.48207V5.76807C3.5 5.07807 4.06 4.51807 4.75 4.51807V4.51807ZM19.25 19.5161H4.75C4.06 19.5161 3.5 18.9561 3.5 18.2661V8.24007L10.74 13.0701C11.123 13.3261 11.562 13.4541 12 13.4541C12.44 13.4541 12.877 13.3261 13.26 13.0711L20.5 8.24107V18.2631C20.5 18.9531 19.94 19.5131 19.25 19.5131V19.5161Z" fill="black"/>
</svg>
