<svg width="24" height="24" viewBox="0 0 24 24" fill="none" xmlns="http://www.w3.org/2000/svg">
<path d="M13.414 12L19.207 6.207C19.597 5.817 19.597 5.184 19.207 4.793C18.817 4.402 18.184 4.403 17.793 4.793L12 10.586L6.207 4.793C5.817 4.403 5.184 4.403 4.793 4.793C4.402 5.183 4.403 5.816 4.793 6.207L10.586 12L4.793 17.793C4.403 18.183 4.403 18.816 4.793 19.207C4.988 19.402 5.243 19.5 5.5 19.5C5.757 19.5 6.012 19.402 6.207 19.207L12 13.414L17.793 19.207C17.988 19.402 18.243 19.5 18.5 19.5C18.757 19.5 19.012 19.402 19.207 19.207C19.597 18.817 19.597 18.184 19.207 17.793L13.414 12Z" fill="#696974"/>
</svg>
