<svg width="24" height="24" viewBox="0 0 24 24" fill="none" xmlns="http://www.w3.org/2000/svg">
<path d="M22.46 7.5699L12.357 2.1149C12.134 1.9949 11.867 1.9949 11.644 2.1149L1.54299 7.5699C1.17899 7.7669 1.04299 8.2219 1.23999 8.5869C1.37499 8.8369 1.63399 8.9799 1.89999 8.9799C2.01999 8.9799 2.14299 8.9499 2.25599 8.8899L3.07099 8.4499L4.69999 19.9629C4.91399 21.1779 6.00799 22.0249 7.35799 22.0249H16.64C17.992 22.0249 19.085 21.1769 19.303 19.9379L20.929 8.4479L21.747 8.8899C22.111 9.0829 22.567 8.9499 22.764 8.5859C22.96 8.2229 22.824 7.7679 22.46 7.5699V7.5699ZM17.822 19.7029C17.715 20.3089 17.119 20.5249 16.642 20.5249H7.35999C6.87999 20.5249 6.28499 20.3089 6.18199 19.7269L4.47999 7.6899L12 3.6279L19.522 7.6879L17.822 19.7029V19.7029Z" fill="#171725"/>
<path d="M8.21997 12.1838C8.21997 14.2678 9.91497 15.9638 12 15.9638C14.085 15.9638 15.78 14.2678 15.78 12.1838C15.78 10.0998 14.085 8.40381 12 8.40381C9.91497 8.40381 8.21997 10.0998 8.21997 12.1838ZM14.28 12.1838C14.28 13.4418 13.258 14.4638 12 14.4638C10.742 14.4638 9.71997 13.4418 9.71997 12.1838C9.71997 10.9258 10.742 9.90381 12 9.90381C13.258 9.90381 14.28 10.9258 14.28 12.1838Z" fill="#171725"/>
</svg>
