<svg width="30" height="30" viewBox="0 0 30 30" fill="none" xmlns="http://www.w3.org/2000/svg">
<path d="M15 27.0473H14.9825C11.7537 26.9873 2.4375 18.5698 2.4375 10.5973C2.4375 6.76728 5.59375 3.40479 9.19125 3.40479C12.0537 3.40479 13.9787 5.37979 14.9987 6.81729C16.0162 5.38229 17.9412 3.40479 20.805 3.40479C24.405 3.40479 27.56 6.76729 27.56 10.5985C27.56 18.5685 18.2425 26.986 15.0137 27.0448H15V27.0473ZM9.1925 5.28104C6.5925 5.28104 4.31375 7.76603 4.31375 10.5998C4.31375 17.7748 13.1062 25.0948 15.0012 25.1723C16.8987 25.0948 25.6887 17.776 25.6887 10.5998C25.6887 7.76603 23.41 5.28104 20.81 5.28104C17.65 5.28104 15.885 8.95104 15.87 8.98729C15.5825 9.68979 14.425 9.68979 14.1362 8.98729C14.1187 8.94979 12.355 5.28104 9.19375 5.28104H9.1925Z" fill="#657786"/>
</svg>
