<svg width="24" height="24" viewBox="0 0 24 24" fill="none" xmlns="http://www.w3.org/2000/svg">
<path d="M12.225 12.1649C10.869 12.1649 9.35301 12.0149 8.38501 10.9089C7.57101 9.97891 7.30801 8.54091 7.58001 6.51691C7.96001 3.69091 9.69601 2.00391 12.226 2.00391C14.756 2.00391 16.493 3.69091 16.872 6.51691C17.144 8.54091 16.88 9.97691 16.066 10.9089C15.096 12.0149 13.581 12.1639 12.226 12.1639L12.225 12.1649ZM18.074 22.0149H6.37601C5.71301 22.0149 5.12601 21.7349 4.72601 21.2289C4.30401 20.6949 4.15001 19.9589 4.31601 19.2609C5.15001 15.7309 8.40201 13.2639 12.224 13.2639C16.046 13.2639 19.298 15.7299 20.134 19.2609C20.298 19.9589 20.144 20.6949 19.722 21.2279C19.322 21.7329 18.737 22.0129 18.074 22.0129V22.0149Z" fill="black"/>
</svg>
